<svg id="Layer_1" height="512" viewBox="0 0 128 128" width="512" xmlns="http://www.w3.org/2000/svg" data-name="Layer 1"><path d="m121.5 64a57.5 57.5 0 1 1 -57.5-57.5 57.742 57.742 0 0 1 57.5 57.5z" fill="#e8e8e8"/><circle cx="48.497" cy="49.271" fill="#cdcdcd" r="8.846"/><path d="m120.4 75.24a57.276 57.276 0 0 1 -5.83 16.15 8.848 8.848 0 1 1 5.83-16.15z" fill="#cdcdcd"/><circle cx="53.005" cy="86.472" fill="#cdcdcd" r="8.846"/><circle cx="81.186" cy="92.472" fill="#cdcdcd" r="6"/><circle cx="88.192" cy="52.292" fill="#cdcdcd" r="6"/><circle cx="83.179" cy="37.877" fill="#cdcdcd" r="3"/><g fill="#2d1d40"><path d="m114.142 39.6a1.75 1.75 0 1 0 3.146-1.533c-.621-1.274-1.3-2.539-2-3.761a1.75 1.75 0 0 0 -3.027 1.757c.663 1.147 1.297 2.337 1.881 3.537z"/><path d="m123.25 64a59.111 59.111 0 0 0 -3.35-19.685 1.749 1.749 0 1 0 -3.3 1.162 55.653 55.653 0 0 1 3.15 18.523 56.256 56.256 0 0 1 -.674 8.626 10.594 10.594 0 1 0 -7.19 19.931 55.75 55.75 0 1 1 -3.9-62.822 1.75 1.75 0 0 0 2.76-2.152 59.245 59.245 0 1 0 5.366 64.641q1.062-1.958 1.97-3.984a59.007 59.007 0 0 0 4.039-12.658 59.663 59.663 0 0 0 1.129-11.582zm-14.87 18.59a7.095 7.095 0 0 1 10.035-6.462c-.02.09-.038.18-.059.27q-.34 1.5-.76 2.97c-.05.174-.1.347-.156.521a55.359 55.359 0 0 1 -2.175 6.026c-.073.171-.143.343-.218.513q-.617 1.4-1.31 2.767l-.127.245a7.066 7.066 0 0 1 -5.23-6.85z"/><path d="m21.355 32.143a53.393 53.393 0 0 0 -9.562 21.338 1.75 1.75 0 0 0 1.371 2.061 1.709 1.709 0 0 0 .347.035 1.752 1.752 0 0 0 1.714-1.405 49.864 49.864 0 0 1 8.932-19.932 1.75 1.75 0 0 0 -2.8-2.1z"/><path d="m34.708 19.549a53.646 53.646 0 0 0 -5.594 4.25 1.75 1.75 0 0 0 2.3 2.642 50.215 50.215 0 0 1 5.227-3.972 1.75 1.75 0 0 0 -1.929-2.92z"/><path d="m39.958 46.369a1.747 1.747 0 0 0 -1.967 1.5 10.594 10.594 0 1 0 5.194-7.769 1.75 1.75 0 1 0 1.752 3.029 7.1 7.1 0 1 1 -3.26 8.1 7.031 7.031 0 0 1 -.217-2.9 1.749 1.749 0 0 0 -1.502-1.96z"/><path d="m53.005 97.068a10.6 10.6 0 1 0 -10.6-10.6 10.608 10.608 0 0 0 10.6 10.6zm0-17.692a7.1 7.1 0 1 1 -7.1 7.1 7.1 7.1 0 0 1 7.1-7.1z"/><path d="m73.436 92.472a7.75 7.75 0 1 0 7.75-7.75 7.758 7.758 0 0 0 -7.75 7.75zm7.75-4.25a4.25 4.25 0 1 1 -4.25 4.25 4.255 4.255 0 0 1 4.25-4.25z"/><path d="m95.942 52.292a7.75 7.75 0 1 0 -7.75 7.75 7.759 7.759 0 0 0 7.75-7.75zm-7.75 4.25a4.25 4.25 0 1 1 4.25-4.25 4.255 4.255 0 0 1 -4.25 4.25z"/><path d="m87.929 37.876a4.75 4.75 0 1 0 -4.75 4.75 4.756 4.756 0 0 0 4.75-4.75zm-6 0a1.25 1.25 0 1 1 1.25 1.25 1.251 1.251 0 0 1 -1.25-1.25z"/></g></svg>